<svg id="Слой_1" xmlns="http://www.w3.org/2000/svg" viewBox="0 0 213.7 57.9">
    <style>.st0{fill:#76B7E0;} .st1{fill:#004F93;}</style>
    <path class="st0"
          d="M7.5 18H2.8V4.6h4.6V18zM19.2 18v-7.3c0-.9-.1-1.6-.4-2-.3-.5-.7-.7-1.3-.7-.8 0-1.3.3-1.7.9s-.5 1.7-.5 3.2V18h-4.6V4.6h3.5l.6 1.7h.2c.4-.6.9-1.1 1.6-1.4.7-.3 1.5-.5 2.4-.5 1.5 0 2.6.4 3.5 1.3s1.2 2.1 1.2 3.6V18h-4.5zM33.5 14.6c.6 0 1.4-.2 2.2-.5v3.4c-.6.3-1.2.5-1.8.6-.6.1-1.2.2-2 .2-1.6 0-2.7-.4-3.4-1.1-.7-.8-1-1.9-1-3.5V8.1H26V6.2l2-1.5 1.2-2.8h3v2.7h3.3v3.5h-3.3v5.2c0 .9.5 1.3 1.3 1.3zM44.6 18.2c-2.2 0-4-.6-5.2-1.8s-1.9-2.9-1.9-5.1c0-2.3.6-4 1.7-5.2s2.8-1.8 4.9-1.8c2 0 3.6.5 4.7 1.6s1.7 2.6 1.7 4.6v2.1h-8.3c0 .7.3 1.3.8 1.8.5.4 1.2.6 2.1.6.8 0 1.6-.1 2.2-.2.7-.2 1.4-.4 2.2-.8v3.3c-.7.4-1.5.6-2.2.8-.8.1-1.7.1-2.7.1zm-.3-10.7c-.5 0-1 .2-1.4.5-.4.3-.6.9-.6 1.6h4c0-.6-.2-1.2-.6-1.6s-.8-.5-1.4-.5zM61.2 4.4c.4 0 .8 0 1.1.1h.3l-.4 4.4c-.4-.1-.9-.1-1.6-.1-1 0-1.7.2-2.2.7-.5.5-.7 1.1-.7 2V18h-4.6V4.6h3.4l.7 2.1h.2c.4-.7 1-1.2 1.7-1.7.7-.4 1.4-.6 2.1-.6zM72.9 18v-7.3c0-.9-.1-1.6-.4-2-.2-.5-.7-.7-1.2-.7-.8 0-1.3.3-1.7.9s-.5 1.7-.5 3.2V18h-4.6V4.6H68l.6 1.7h.3c.4-.6.9-1.1 1.6-1.4.7-.3 1.5-.5 2.4-.5 1.5 0 2.6.4 3.5 1.3s1.2 2.1 1.2 3.6V18h-4.7zM87.1 18.2c-2.2 0-4-.6-5.2-1.8S80 13.5 80 11.3c0-2.3.6-4 1.7-5.2s2.8-1.8 4.9-1.8c2 0 3.6.5 4.7 1.6S93 8.5 93 10.5v2.1h-8.3c0 .7.3 1.3.8 1.8.5.4 1.2.6 2.1.6.8 0 1.6-.1 2.2-.2.7-.2 1.4-.4 2.2-.8v3.3c-.7.4-1.5.6-2.2.8-.7.1-1.6.1-2.7.1zm-.2-10.7c-.5 0-1 .2-1.4.5-.4.3-.6.9-.6 1.6h4c0-.6-.2-1.2-.6-1.6s-.8-.5-1.4-.5zM102.2 14.6c.6 0 1.4-.2 2.2-.5v3.4c-.6.3-1.2.5-1.8.6-.6.1-1.2.2-2 .2-1.6 0-2.7-.4-3.4-1.1-.7-.8-1-1.9-1-3.5V8.1h-1.6V6.2l2.1-1.5 1.2-2.8h3v2.7h3.3v3.5H101v5.2c0 .9.4 1.3 1.2 1.3z"/>
    <g>
        <path class="st1"
              d="M17.2 36.5h16.9v19.3C29.5 57.2 24.5 58 19 58c-6 0-10.7-1.6-14-4.8s-5-7.8-5-13.7C0 33.7 1.8 29.2 5.4 26c3.6-3.2 8.7-4.8 15.2-4.8 2.5 0 4.8.2 7 .6s4.1 1 5.7 1.6L29.9 31c-2.8-1.3-5.9-1.9-9.3-1.9-3.1 0-5.5.9-7.2 2.8s-2.5 4.5-2.5 7.9c0 3.3.8 5.9 2.3 7.6 1.5 1.8 3.7 2.6 6.6 2.6 1.6 0 3-.1 4.3-.4V44h-7v-7.5zM66.1 57.4l-1.9-6.7H51.5l-2 6.7H37.9l12.8-35.9h14.1l12.9 35.9H66.1zM62 42.8l-1.7-5.9c-.4-1.3-.9-3-1.4-5.1-.6-2.1-.9-3.6-1.1-4.5-.2.8-.5 2.2-1 4.1s-1.5 5.7-3.2 11.3H62zM109.9 57.4H79.4v-6l17-22H79.8v-7.8h29.7v5.9l-17 22h17.4v7.9zM138.8 57.4h-23.3V21.7h23.3v7.8h-12.7v5.6h11.7v7.8h-11.7v6.8h12.7v7.7zM162.9 57.4h-10.6V29.6h-9.6v-7.9h29.7v7.9h-9.5v27.8zM202.1 57.4l-1.9-6.7h-12.7l-2 6.7h-11.6l12.8-35.9h14.1l13 35.9h-11.7zM198 42.8l-1.7-5.9c-.4-1.3-.9-3-1.4-5.1-.6-2.1-.9-3.6-1.1-4.5-.2.8-.5 2.2-1 4.1s-1.5 5.7-3.2 11.3h8.4z"/>
    </g>
    <path class="st0" d="M2.8 0h4.6v2.9H2.8z"/>
</svg>